# xmcd
#
# Track frame offsets:
#	150
#	18773
#	37470
#	55195
#	69260
#	90663
#	105370
#	121635
#	132473
#	150910
#	166263
#	177265
#	186610
#	208990
#	221595
#	236978
#	252863
#	264703
#	278748
#	293283
#
# Disc length: 4050 seconds
#
# Revision: 1
# Processed by: cddbd v1.5.1PL2 Copyright (c) Steve Scherf et al.
# Submitted via: audiograbber 1.83.01
#
DISCID=1f0fd014
DTITLE=Various Artist - Bluesville Years -  Vol. 4 - In The Key Of Blues
DYEAR=1995
DGENRE=Blues
TTITLE0=Mercy Dee Walton - One Room Country Shack
TTITLE1=Mercy Dee Walton - My Little Angel
TTITLE2=Mercy Dee Walton - After The Fight
TTITLE3=Mercy Dee Walton - Five Card Hand
TTITLE4=Memphis Slim - Mother Earth
TTITLE5=Little Brother Montgomery - Vicksburg Blues
TTITLE6=Little Brother Montgomery - Pleading Blues
TTITLE7=Little Brother Montgomery - No Special Rider
TTITLE8=Little Brother Montgomery - Something Keeps Worrying Me
TTITLE9=Willy Dixon and Memphis Slim - Sittin' And Cryin' The Blues
TTITLE10=Roosevelt Sykes - Number Nine
TTITLE11=Roosevelt Sykes - Set The Meat Outdoors
TTITLE12=Roosevelt Sykes - Miss Ida B.
TTITLE13=Roosevelt Sykes - She Ain't For Nobody
TTITLE14=Curtis Jones - Lonesome Bedroom Blues
TTITLE15=Curtis Jones - Weekend Blues
TTITLE16=Curtis Jones - Please Say Yes
TTITLE17=Curtis Jones - Low Down Worried Blues
TTITLE18=Sunnyland Slim - Tired Of You Clowning
TTITLE19=Sunnyland Slim - Harlem Can't Be Heaven
EXTD=
EXTT0=
EXTT1=
EXTT2=
EXTT3=
EXTT4=
EXTT5=
EXTT6=
EXTT7=
EXTT8=
EXTT9=
EXTT10=
EXTT11=
EXTT12=
EXTT13=
EXTT14=
EXTT15=
EXTT16=
EXTT17=
EXTT18=
EXTT19=
PLAYORDER=
